/* XPM */
static char * logo_xpm[] = {
"54 50 164 2",
"  	c None",
". 	c #313131",
"+ 	c #323232",
"@ 	c #303030",
"# 	c #2F2F2F",
"$ 	c #4D4D4D",
"% 	c #ADADAD",
"& 	c #C0C0C0",
"* 	c #999999",
"= 	c #565656",
"- 	c #B1B1B1",
"; 	c #C1C1C1",
"> 	c #BFBFBF",
", 	c #909090",
"' 	c #2E2E2E",
") 	c #C5C5C5",
"! 	c #FFFFFF",
"~ 	c #FCFCFC",
"{ 	c #6F6F6F",
"] 	c #D0D0D0",
"^ 	c #F9F9F9",
"/ 	c #5A5A5A",
"( 	c #717171",
"_ 	c #FEFEFE",
": 	c #454545",
"< 	c #7E7E7E",
"[ 	c #3D3D3D",
"} 	c #292929",
"| 	c #D4D4D4",
"1 	c #8C8C8C",
"2 	c #F6F6F6",
"3 	c #616161",
"4 	c #272727",
"5 	c #E9E9E9",
"6 	c #9B9B9B",
"7 	c #2A2A2A",
"8 	c #2C2C2C",
"9 	c #727272",
"0 	c #2B2B2B",
"a 	c #CBCBCB",
"b 	c #535353",
"c 	c #464646",
"d 	c #D9D9D9",
"e 	c #2D2D2D",
"f 	c #494949",
"g 	c #CDCDCD",
"h 	c #515151",
"i 	c #D7D7D7",
"j 	c #FDFDFD",
"k 	c #BEBEBE",
"l 	c #353535",
"m 	c #DCDCDC",
"n 	c #FAFAFA",
"o 	c #B2B2B2",
"p 	c #262626",
"q 	c #252525",
"r 	c #404040",
"s 	c #7D7D7D",
"t 	c #898989",
"u 	c #7F7F7F",
"v 	c #6B6B6B",
"w 	c #808080",
"x 	c #505050",
"y 	c #8E8E8E",
"z 	c #F1F1F1",
"A 	c #444444",
"B 	c #5C5C5C",
"C 	c #333333",
"D 	c #606060",
"E 	c #343434",
"F 	c #838383",
"G 	c #E7E7E7",
"H 	c #EBEBEB",
"I 	c #9D9D9D",
"J 	c #707070",
"K 	c #DFDFDF",
"L 	c #585858",
"M 	c #545454",
"N 	c #595959",
"O 	c #F0F0F0",
"P 	c #6A6A6A",
"Q 	c #FBFBFB",
"R 	c #424242",
"S 	c #EEEEEE",
"T 	c #4F4F4F",
"U 	c #525252",
"V 	c #4B4B4B",
"W 	c #3E3E3E",
"X 	c #4A4A4A",
"Y 	c #313132",
"Z 	c #323231",
"` 	c #393531",
" .	c #443930",
"..	c #4E3E2E",
"+.	c #403830",
"@.	c #343331",
"#.	c #3A3531",
"$.	c #453A2F",
"%.	c #4F3F2E",
"&.	c #4F3E2E",
"*.	c #4D3E2E",
"=.	c #3F3730",
"-.	c #333231",
";.	c #2F3132",
">.	c #6C4B2B",
",.	c #ED811A",
"'.	c #F38419",
").	c #F2831A",
"!.	c #EA801A",
"~.	c #303132",
"{.	c #835427",
"].	c #F0821A",
"^.	c #F1831A",
"/.	c #DF7C1C",
"(.	c #313232",
"_.	c #523F2D",
":.	c #F78619",
"<.	c #F3841A",
"[.	c #F2841A",
"}.	c #EB801A",
"|.	c #333232",
"1.	c #58422D",
"2.	c #F58519",
"3.	c #E27D1B",
"4.	c #2B2F32",
"5.	c #B76A21",
"6.	c #F68519",
"7.	c #7B5128",
"8.	c #2A2E32",
"9.	c #D6781D",
"0.	c #56412D",
"a.	c #282D33",
"b.	c #E07C1C",
"c.	c #965C25",
"d.	c #2A2E33",
"e.	c #FF8918",
"f.	c #6C4B2A",
"g.	c #2A2F32",
"h.	c #BD6C20",
"i.	c #7E5228",
"j.	c #DB7A1D",
"k.	c #5A432D",
"l.	c #5D442D",
"m.	c #805328",
"n.	c #FA8719",
"o.	c #F88619",
"p.	c #F78519",
"q.	c #F98619",
"r.	c #EA801B",
"s.	c #8C5826",
"t.	c #FB8718",
"u.	c #E17C1C",
"v.	c #423930",
"w.	c #383431",
"x.	c #795029",
"y.	c #875627",
"z.	c #6D4A2A",
"A.	c #282E33",
"B.	c #3F3830",
"C.	c #7C5128",
"D.	c #875628",
"E.	c #865627",
"F.	c #65482B",
"G.	c #262D33",
"                    . . + . + + + + + + + + + + + + + + + + + + + + + + + + + + + . + +                     ",
"              . . . + + + + + + + + + + + + + + + + + + + + + + + + + + + + + + + + + + + + +               ",
"            . + . + + + + + + + + + + + + + + + + + + + + + + + + + + + + + + + + + + + + + + + +           ",
"        . . + + + + + + + + + + + + + + + + + + + + + + + + + + + + + + + + + + + + + + + + + + + .         ",
"      + . + + + + + + + + + + + + + + + + + + + + + + + + + + + + + + + + + + + + + + + + + + + + . .       ",
"      . + + + + + + + + + + + + + + + + + + + + + + + + + + + + + + + + + + + + + + + + + + + + + + + .     ",
"    . . + + + + + + + + + + + + + + + + + + + + + + + + + + + + + + + + + + + + + + + + + + + + + + + +     ",
"  . + + + + + + + + + + + + + + + + + + + + + + + + + + + + + + + + + + + + + + + + + + + + + + + + + . .   ",
"  + . + + + + + + + + + + + + + + + + + + + + + + + + + + + + + + + + + + + + + + + + + + + + + + + + + .   ",
"  + + + + + + + + + + + + + + + + + + + + + + + + + + + + + + + + + + + + + + + + + + + + + + + + + + + . . ",
"+ + + + + + + . @ # @ . + + + + + + + + + . @ # # # # # # # # # # # # # # # # # # # # # # @ + + + + + + + + ",
"+ + + + + + . $ % & * + . + + + + + + + . = - ; & & & & & & & & & & & & & & & & & & & & > , ' . + + + + + + ",
". + + + + # ) ! ! ! ! ~ { # + + + + + + ] ! ! ! ! ! ! ! ! ! ! ! ! ! ! ! ! ! ! ! ! ! ! ! ! ! ^ / @ + + + + + ",
"+ + + + @ ( ! _ ! ! ! _ ! : + + + + # < ! _ ! ! ! ! ! ! ! ! ! ! ! ! ! ! ! ! ! ! ! ! ! ! ! ! ! ! [ + + + + + ",
"+ + + + } | ! ! ! ! ! ! ! 1 . + + + } 2 ! ! ! ! ! ! ! ! ! ! ! ! ! ! ! ! ! ! ! ! ! ! ! ! ! ! ! ! 3 . + + + + ",
"+ + + + 4 5 ! ! ! ! ! ! ! 6 . + + + 7 ! ! ! ! ! ! ! ! ! ! ! ! ! ! ! ! ! ! ! ! ! ! ! ! ! ! ! ! ! { @ + + + + ",
"+ + + + 8 % _ ! ! ! ! ! ! 9 + + + + 0 a ! ! ! ! ! ! ! ! ! ! ! ! ! ! ! ! ! ! ! ! ! ! ! ! ! ! _ ! b . + + + + ",
"+ + + + + c ! ! ! ! _ _ d e + + + + . f ! _ ! ! ! ! ! ! ! ! ! ! ! ! ! ! ! ! ! ! ! ! ! ! ! _ ! g @ + + + + + ",
"+ + + + + @ h i ! ! j k l + + + + + + @ 3 m ! ! ! ! ! ! ! ! ! ! ! ! ! ! ! ! ! ! ! ! ! ! ! n o 8 + + + + + + ",
"+ + + + + + . 0 p ' q # + + + + + + + + + 0 4 # # # # # # # # # # # # # # # # # # # # # 8 p # + + + + + + + ",
"+ + + + + + + + . . + + + + + + + + + + + + . . . . . . . . . . . . . . . . . . . . . . . + + + + + + + + + ",
"+ + + + + + + + + + + + + + + + + + + + + + + + + + + + + + + + + + + + + + + + + + + + + + + + + + + + + + ",
"+ + + + + + # r s t ( 7 . + + + + + + + ' : u t t t t t t t t t t t t t t t t t t t t t t v 4 . + + + + + + ",
"+ + + + + @ w ! ! ! ! j x @ + + + + + . y ! ! ! ! ! ! ! ! ! ! ! ! ! ! ! ! ! ! ! ! ! ! ! ! ! z A . + + + + + ",
"+ + + + . B ! _ ! ! ! _ ! C + + + + @ D ! _ ! ! ! ! ! ! ! ! ! ! ! ! ! ! ! ! ! ! ! ! ! ! ! ! ! ! E + + + + + ",
"+ + + + 7 ) _ ! ! ! ! ! ! F + + + + 7 G ! ! ! ! ! ! ! ! ! ! ! ! ! ! ! ! ! ! ! ! ! ! ! ! ! ! _ ! / + + + + + ",
"+ + + + 4 H ! ! ! ! ! ! _ I . + + + 7 ! _ ! ! ! ! ! ! ! ! ! ! ! ! ! ! ! ! ! ! ! ! ! ! ! ! ! ! _ J @ + + + + ",
"+ + + + 0 > _ ! ! ! ! ! ! u + + + + 7 K ! ! ! ! ! ! ! ! ! ! ! ! ! ! ! ! ! ! ! ! ! ! ! ! ! ! _ ! L + + + + + ",
"+ + + + . M ! ! ! ! _ ! ^ . + + + + . N ! _ ! ! ! ! ! ! ! ! ! ! ! ! ! ! ! ! ! ! ! ! ! ! ! _ ! O C + + + + + ",
"+ + + + + @ P j _ _ _ Q R + + + + + + @ w ! _ _ _ _ _ _ _ _ _ _ _ _ _ _ _ _ _ _ _ _ _ _ _ _ S E + + + + + + ",
"+ + + + + + . [ T U V C . + + + + + + + @ W T U U U U U U U U U U U U U U U U U U U U U U X + . + + + + + + ",
"+ + + + + + + + + + + + + + + + + + + + + + + + + + + + + + + + + + + + + + + + + + + + + + + + + + + + + + ",
"+ + + + + + + + . Y Z + + + + + + + + + + + . Y Y Y Y Y Y Y Y Y Y Y Y Y Y Y Y Y Y Y Y Y Y Z + + + + + + + + ",
"+ + + + + Z Y `  ...+.@.Y + + + + + + Z Y #.$.%.&.&.&.&.&.&.&.&.&.&.&.&.&.&.&.&.&.&.&.&.*.=.-.Y + + + + + + ",
"+ + + + + ;.>.,.'.'.).!.+.Z + + + + + ~.{.].'.'.'.'.'.'.'.'.'.'.'.'.'.'.'.'.'.'.'.'.'.'.'.^./.+ Z + + + + + ",
"+ + + + (._.:.'.<.<.).[.}.|.+ + + + Y 1.2.).<.<.<.<.<.<.<.<.<.<.<.<.<.<.<.<.<.<.<.<.<.<.<.[.'.3.@.+ + + + + ",
". + + + 4.5.).<.<.<.<.<.6.7.+ + + + 8.9.'.<.<.<.<.<.<.<.<.<.<.<.<.<.<.<.<.<.<.<.<.<.<.<.<.<.[.'.0.. + + + + ",
"+ + + + a.b.<.<.<.<.<.<.).c.Y + + + d.e.).<.<.<.<.<.<.<.<.<.<.<.<.<.<.<.<.<.<.<.<.<.<.<.<.<.<.).f.~.+ + + + ",
". + + + g.h.).<.<.<.<.<.2.i.+ + + + 8.j.'.<.<.<.<.<.<.<.<.<.<.<.<.<.<.<.<.<.<.<.<.<.<.<.<.<.).'.1.Z + + + . ",
"+ + + + Y k.2.).<.<.<.).:.-.+ + + + ~.l.'.).<.<.<.<.<.<.<.<.<.<.<.<.<.<.<.<.<.<.<.<.<.<.<.<.'.).@.+ + + + + ",
"  + + + + ~.m.n.o.p.q.r.&.~.+ + + + Z Y s.n.o.p.p.p.p.p.p.p.p.p.p.p.p.p.p.p.p.p.p.p.p.p.p.t.u.v.Y + + + + + ",
"  . . + + Z ~.w.x.y.z.A.Y + + + + + + Z ;.B.C.D.D.D.D.D.D.D.D.D.D.D.D.D.D.D.D.D.D.D.D.D.E.F.G.Y + + + + +   ",
"  + . + + + + + + + + + + + + + + + + + + + + + + + + + + + + + + + + + + + + + + + + + + + + + + + + + +   ",
"    + + + + + + + + + + + + + + + + + + + + + + + + + + + + + + + + + + + + + + + + + + + + + + + + + +     ",
"      . + + + + + + + + + + + + + + + + + + + + + + + + + + + + + + + + + + + + + + + + + + + + + + + +     ",
"      . . + + + + + + + + + + + + + + + + + + + + + + + + + + + + + + + + + + + + + + + + + + + + . +       ",
"        . + + + + + + + + + + + + + + + + + + + + + + + + + + + + + + + + + + + + + + + + + + + + .         ",
"          + . . . + + + + + + + + + + + + + + + + + + + + + + + + + + + + + + + + + + + + + . + +           ",
"              . . + + + + + + + + + + + + + + + + + + + + + + + + + + + + + + + + + + + . . .               ",
"                    . . . + + + + + + + + + + + + + + + + + + + + + + + + + + + + + . . .                   "};
